REM MD5 b53d4c6d8818873163a42afe526ed1a5
FILE "Carmageddon (Europe) (En,Fr,Es,It).bin" BINARY
  TRACK 01 MODE2/2352
    INDEX 01 00:00:00
  TRACK 02 AUDIO
    INDEX 00 17:23:74
    INDEX 01 17:25:74
  TRACK 03 AUDIO
    INDEX 00 21:40:65
    INDEX 01 21:42:65
  TRACK 04 AUDIO
    INDEX 00 27:23:38
    INDEX 01 27:25:38
  TRACK 05 AUDIO
    INDEX 00 33:11:40
    INDEX 01 33:13:40
  TRACK 06 AUDIO
    INDEX 00 38:55:38
    INDEX 01 38:57:38
REM LEADOUT 44:05:10
